<?xml version="1.0" encoding="UTF-8"?>
<svg xmlns="http://www.w3.org/2000/svg" xmlns:xlink="http://www.w3.org/1999/xlink" width="500px" height="500px" viewBox="0 0 500 500" version="1.1">
<g id="surface1">
<path style=" stroke:none;fill-rule:evenodd;fill:rgb(80.000001%,0%,0%);fill-opacity:1;" d="M -0.441406 0.0546875 L 500.050781 0.0546875 L 500.050781 500.542969 L -0.441406 500.542969 Z M -0.441406 0.0546875 "/>
<path style=" stroke:none;fill-rule:evenodd;fill:rgb(100%,100%,100%);fill-opacity:1;" d="M 247.070312 270.703125 C 247.070312 280.367188 245.292969 289.605469 241.734375 298.417969 C 238.34375 307.0625 233.425781 314.691406 226.988281 321.300781 C 220.714844 327.910156 213.171875 333.164062 204.359375 337.0625 C 195.714844 340.960938 186.050781 342.910156 175.375 342.910156 C 165.203125 342.910156 155.710938 340.960938 146.898438 337.0625 C 138.085938 333.164062 130.371094 327.910156 123.761719 321.300781 C 117.320312 314.519531 112.234375 306.722656 108.507812 297.910156 C 104.777344 289.09375 102.914062 279.773438 102.914062 269.941406 C 102.914062 260.621094 104.609375 251.71875 107.996094 243.246094 C 111.558594 234.601562 116.386719 226.972656 122.488281 220.363281 C 128.761719 213.753906 136.304688 208.5 145.117188 204.601562 C 153.933594 200.703125 163.679688 198.753906 174.355469 198.753906 C 184.1875 198.753906 193.339844 200.703125 201.816406 204.601562 C 210.460938 208.5 218.171875 214.429688 224.953125 222.398438 L 224.953125 157.308594 L 247.070312 157.308594 Z M 174.867188 321.300781 C 181.644531 321.300781 188.085938 320.027344 194.1875 317.484375 C 200.289062 314.773438 205.542969 311.214844 209.953125 306.808594 C 214.359375 302.230469 217.832031 296.890625 220.375 290.789062 C 223.085938 284.519531 224.445312 277.824219 224.445312 270.703125 C 224.445312 263.753906 223.085938 257.230469 220.375 251.128906 C 217.832031 245.023438 214.359375 239.6875 209.953125 235.109375 C 205.542969 230.53125 200.289062 226.972656 194.1875 224.429688 C 188.085938 221.71875 181.644531 220.363281 174.867188 220.363281 C 168.085938 220.363281 161.644531 221.71875 155.542969 224.429688 C 149.609375 226.972656 144.441406 230.53125 140.035156 235.109375 C 135.625 239.6875 132.066406 245.023438 129.355469 251.128906 C 126.8125 257.230469 125.542969 263.753906 125.542969 270.703125 C 125.542969 277.652344 126.8125 284.179688 129.355469 290.28125 C 132.066406 296.382812 135.625 301.722656 140.035156 306.300781 C 144.441406 310.875 149.609375 314.519531 155.542969 317.230469 C 161.644531 319.945312 168.085938 321.300781 174.867188 321.300781 Z M 174.867188 321.300781 "/>
<path style=" stroke:none;fill-rule:evenodd;fill:rgb(100%,100%,100%);fill-opacity:1;" d="M 328.175781 253.414062 L 284.191406 340.367188 L 258.003906 340.367188 L 308.089844 243.753906 L 263.089844 157.308594 L 288.515625 157.308594 L 328.175781 235.617188 L 367.585938 157.308594 L 393.011719 157.308594 L 348.007812 242.992188 L 398.09375 340.367188 L 371.90625 340.367188 Z M 328.175781 253.414062 "/>
<path style="fill-rule:evenodd;fill:rgb(100%,100%,100%);fill-opacity:1;stroke-width:1.365;stroke-linecap:butt;stroke-linejoin:miter;stroke:rgb(100%,100%,100%);stroke-opacity:1;stroke-miterlimit:4;" d="M 54.256112 180.736953 L 82.79378 152.551284 " transform="matrix(5.004898,0,0,5.004898,-271.987729,-405.503658)"/>
<path style="fill-rule:evenodd;fill:rgb(100%,100%,100%);fill-opacity:1;stroke-width:1.365;stroke-linecap:butt;stroke-linejoin:miter;stroke:rgb(100%,100%,100%);stroke-opacity:1;stroke-miterlimit:4;" d="M 125.952281 109.569173 L 154.489168 81.384284 " transform="matrix(5.004898,0,0,5.004898,-271.987729,-405.503658)"/>
</g>
</svg>
